<svg width="50" height="50" viewBox="0 0 50 50" fill="none" xmlns="http://www.w3.org/2000/svg">
<path opacity="0.502255" d="M25 0C11.1918 0 0 11.1918 0 25C0 38.8082 11.1918 50 25 50C38.8082 50 50 38.8082 50 25C50 11.1918 38.8082 0 25 0ZM25 1.66667C37.8878 1.66667 48.3333 12.1122 48.3333 25C48.3333 37.8878 37.8878 48.3333 25 48.3333C12.1122 48.3333 1.66667 37.8878 1.66667 25C1.66667 12.1122 12.1122 1.66667 25 1.66667Z" fill="black"/>
<path d="M24.9994 1.66602C37.8871 1.66602 48.3327 12.1116 48.3327 24.9994C48.3327 37.8871 37.8871 48.3327 24.9994 48.3327C12.1116 48.3327 1.66602 37.8871 1.66602 24.9994C1.66602 12.1116 12.1116 1.66602 24.9994 1.66602Z" fill="white"/>
<path d="M21.666 15.8358C21.666 15.3742 22.0244 15 22.4835 15H27.5152C27.9667 15 28.3327 15.366 28.3327 15.8268V25.1732C28.3327 25.6298 28.0575 26.2477 27.7121 26.5585L27.2866 26.9415C26.9439 27.2499 26.9264 27.7604 27.2489 28.0829L27.7498 28.5837C28.0717 28.9057 28.3327 29.5494 28.3327 30.0024V34.1642C28.3327 34.6258 27.9743 35 27.5152 35H22.4835C22.032 35 21.666 34.6396 21.666 34.1679V24.9988C21.666 24.5392 21.9264 23.9062 22.2489 23.5837L22.7498 23.0829C23.0717 22.761 23.0723 22.2396 22.7498 21.9171L22.2489 21.4163C21.927 21.0943 21.666 20.4506 21.666 19.9976V15.8358Z" fill="#0A2D4D"/>
<path d="M24.9993 6.66602C35.1255 6.66602 43.3327 14.8732 43.3327 24.9993C43.3327 35.1255 35.1255 43.3327 24.9993 43.3327C14.8732 43.3327 6.66602 35.1255 6.66602 24.9993C6.66602 14.8732 14.8732 6.66602 24.9993 6.66602ZM24.9993 11.666C17.6349 11.666 11.666 17.6349 11.666 24.9993C11.666 32.3638 17.6349 38.3327 24.9993 38.3327C32.3638 38.3327 38.3327 32.3638 38.3327 24.9993C38.3327 17.6349 32.3638 11.666 24.9993 11.666Z" fill="#198CFF"/>
</svg>
