<svg width="50" height="50" viewBox="0 0 50 50" fill="none" xmlns="http://www.w3.org/2000/svg">
<path d="M1.81297 37.6758C1.29584 38.5191 0.715066 39.4977 0.221804 40.2773C0.00956817 40.636 -0.0534889 41.0636 0.0461855 41.4682C0.14586 41.8729 0.400309 42.2223 0.754845 42.4413L11.0974 48.806C11.2772 48.917 11.4772 48.991 11.6858 49.0239C11.8945 49.0567 12.1076 49.0477 12.3127 48.9974C12.5178 48.947 12.7109 48.8563 12.8806 48.7306C13.0503 48.6048 13.1933 48.4466 13.3012 48.265C13.7149 47.5728 14.2479 46.6738 14.8287 45.7112C18.926 38.9487 23.0471 39.7761 30.4778 43.3244L40.7329 48.2014C40.9252 48.2929 41.1338 48.3448 41.3465 48.3542C41.5592 48.3636 41.7716 48.3303 41.9712 48.2561C42.1708 48.1819 42.3534 48.0684 42.5083 47.9223C42.6632 47.7763 42.7873 47.6006 42.873 47.4058L47.7977 36.2676C47.9649 35.8852 47.9753 35.4525 47.8264 35.0626C47.6776 34.6727 47.3816 34.3569 47.0021 34.1832C44.8381 33.1648 40.534 31.1361 36.6595 29.2665C22.7209 22.496 10.8747 22.9336 1.81297 37.6758Z" fill="url(#paint0_linear_1799_70424)"/>
<path d="M48.187 12.4016C48.7041 11.5583 49.2849 10.5798 49.7782 9.80009C49.9904 9.44144 50.0535 9.01383 49.9538 8.60919C49.8541 8.20454 49.5997 7.85514 49.2451 7.6361L38.9025 1.27143C38.7215 1.14948 38.5173 1.06609 38.3026 1.02645C38.0879 0.986811 37.8674 0.991772 37.6547 1.04102C37.442 1.09028 37.2417 1.18276 37.0663 1.31274C36.8909 1.44271 36.7442 1.60738 36.6351 1.79652C36.2214 2.48868 35.6884 3.38768 35.1076 4.35034C31.0104 11.1128 26.8892 10.2854 19.4585 6.73709L9.23524 1.88403C9.04299 1.79253 8.83434 1.74054 8.62164 1.73114C8.40894 1.72174 8.19652 1.75512 7.99695 1.82931C7.79739 1.9035 7.61474 2.01698 7.45983 2.16304C7.30493 2.3091 7.1809 2.48476 7.09511 2.67962L2.17045 13.8178C2.00322 14.2001 1.99289 14.6329 2.14171 15.0228C2.29053 15.4127 2.58657 15.7285 2.96604 15.9022C5.13002 16.9206 9.43413 18.9493 13.3086 20.8189C27.2791 27.5814 39.1253 27.1279 48.187 12.4016Z" fill="url(#paint1_linear_1799_70424)"/>
<defs>
<linearGradient id="paint0_linear_1799_70424" x1="47.5192" y1="52.0918" x2="16.2289" y2="34.1116" gradientUnits="userSpaceOnUse">
<stop offset="0.18" stop-color="#0052CC"/>
<stop offset="1" stop-color="#2684FF"/>
</linearGradient>
<linearGradient id="paint1_linear_1799_70424" x1="2.48073" y1="-2.02228" x2="33.779" y2="15.9659" gradientUnits="userSpaceOnUse">
<stop offset="0.18" stop-color="#0052CC"/>
<stop offset="1" stop-color="#2684FF"/>
</linearGradient>
</defs>
</svg>
