<svg width="50" height="50" viewBox="0 0 50 50" fill="none" xmlns="http://www.w3.org/2000/svg">
<path d="M25.0035 50V40.3047C35.2658 40.3047 43.2318 30.1276 39.2913 19.3267C37.8455 15.3579 34.6421 12.1545 30.6449 10.7087C19.8441 6.79659 9.6669 14.7342 9.6669 24.9965H0C0 8.63925 15.8186 -4.11766 32.9695 1.24024C40.4536 3.59318 46.4352 9.54641 48.7597 17.0305C54.1177 34.1814 41.3607 50 25.0035 50Z" fill="#0080FF"/>
<path fill-rule="evenodd" clip-rule="evenodd" d="M25.0341 40.3622H15.3672V30.6953H25.0341V40.3622Z" fill="#0080FF"/>
<path fill-rule="evenodd" clip-rule="evenodd" d="M15.3678 47.7603H7.96875V40.3613H15.3678V47.7603Z" fill="#0080FF"/>
<path fill-rule="evenodd" clip-rule="evenodd" d="M7.96813 40.3627H1.75977V34.1543H7.96813V40.3627Z" fill="#0080FF"/>
</svg>
