<svg width="50" height="50" viewBox="0 0 50 50" fill="none" xmlns="http://www.w3.org/2000/svg">
<path d="M49.513 20.4035C49.3739 20.2875 48.1216 19.3368 45.4316 19.3368C44.7359 19.3368 44.0171 19.4063 43.3214 19.5223C42.8112 15.9743 39.8661 14.2582 39.7502 14.1655L39.0313 13.748L38.5675 14.4205C37.9877 15.3249 37.5471 16.3453 37.292 17.3888C36.8051 19.4063 37.1065 21.3079 38.1269 22.9312C36.8978 23.6268 34.9035 23.7892 34.4861 23.8124H1.55674C0.698717 23.8124 0.00302665 24.5081 0.00302665 25.3661C-0.0433527 28.2416 0.443631 31.1171 1.44079 33.8303C2.57708 36.7986 4.26993 39.0016 6.44976 40.3466C8.90787 41.8539 12.9197 42.712 17.4417 42.712C19.4824 42.712 21.5231 42.5265 23.5406 42.1554C26.3465 41.6452 29.0365 40.6713 31.5178 39.2567C33.5585 38.074 35.3905 36.5667 36.9442 34.8043C39.5646 31.8592 41.1183 28.5663 42.2546 25.6444C42.417 25.6444 42.5561 25.6444 42.7184 25.6444C45.5708 25.6444 47.3332 24.5081 48.3072 23.5341C48.9565 22.9312 49.4434 22.1891 49.7913 21.3543L50 20.7513L49.513 20.4035Z" fill="#0091E2"/>
<path d="M4.35907 23.0237H8.76511C8.97382 23.0237 9.15933 22.8613 9.15933 22.6294V18.6872C9.15933 18.4785 8.99701 18.293 8.76511 18.293H4.35907C4.15036 18.293 3.96484 18.4553 3.96484 18.6872V22.6294C3.98803 22.8613 4.15036 23.0237 4.35907 23.0237Z" fill="#0091E2"/>
<path d="M10.4352 23.0237H14.8413C15.05 23.0237 15.2355 22.8613 15.2355 22.6294V18.6872C15.2355 18.4785 15.0732 18.293 14.8413 18.293H10.4352C10.2265 18.293 10.041 18.4553 10.041 18.6872V22.6294C10.0642 22.8613 10.2265 23.0237 10.4352 23.0237Z" fill="#0091E2"/>
<path d="M16.6266 23.0237H21.0327C21.2414 23.0237 21.4269 22.8613 21.4269 22.6294V18.6872C21.4269 18.4785 21.2646 18.293 21.0327 18.293H16.6266C16.4179 18.293 16.2324 18.4553 16.2324 18.6872V22.6294C16.2324 22.8613 16.3947 23.0237 16.6266 23.0237Z" fill="#0091E2"/>
<path d="M22.7263 23.0237H27.1323C27.341 23.0237 27.5265 22.8613 27.5265 22.6294V18.6872C27.5265 18.4785 27.3642 18.293 27.1323 18.293H22.7263C22.5175 18.293 22.332 18.4553 22.332 18.6872V22.6294C22.332 22.8613 22.5175 23.0237 22.7263 23.0237Z" fill="#0091E2"/>
<path d="M10.4352 17.3889H14.8413C15.05 17.3889 15.2355 17.2034 15.2355 16.9947V13.0524C15.2355 12.8437 15.0732 12.6582 14.8413 12.6582H10.4352C10.2265 12.6582 10.041 12.8205 10.041 13.0524V16.9947C10.0642 17.2034 10.2265 17.3889 10.4352 17.3889Z" fill="#0091E2"/>
<path d="M16.6266 17.3889H21.0327C21.2414 17.3889 21.4269 17.2034 21.4269 16.9947V13.0524C21.4269 12.8437 21.2646 12.6582 21.0327 12.6582H16.6266C16.4179 12.6582 16.2324 12.8205 16.2324 13.0524V16.9947C16.2324 17.2034 16.3947 17.3889 16.6266 17.3889Z" fill="#0091E2"/>
<path d="M22.7263 17.3889H27.1323C27.341 17.3889 27.5265 17.2034 27.5265 16.9947V13.0524C27.5265 12.8437 27.341 12.6582 27.1323 12.6582H22.7263C22.5175 12.6582 22.332 12.8205 22.332 13.0524V16.9947C22.332 17.2034 22.5175 17.3889 22.7263 17.3889Z" fill="#0091E2"/>
<path d="M22.7263 11.7307H27.1323C27.341 11.7307 27.5265 11.5684 27.5265 11.3365V7.39423C27.5265 7.18552 27.341 7 27.1323 7H22.7263C22.5175 7 22.332 7.16233 22.332 7.39423V11.3365C22.332 11.5452 22.5175 11.7307 22.7263 11.7307Z" fill="#0091E2"/>
<path d="M28.8708 23.0237H33.2768C33.4855 23.0237 33.6711 22.8613 33.6711 22.6294V18.6872C33.6711 18.4785 33.5087 18.293 33.2768 18.293H28.8708C28.6621 18.293 28.4766 18.4553 28.4766 18.6872V22.6294C28.4998 22.8613 28.6621 23.0237 28.8708 23.0237Z" fill="#0091E2"/>
</svg>
