<svg width="50" height="50" viewBox="0 0 50 50" fill="none" xmlns="http://www.w3.org/2000/svg">
<g clip-path="url(#clip0_1799_70643)">
<path d="M16.3333 50.0006C20.9333 50.0006 24.6666 46.2673 24.6666 41.6673V33.334H16.3333C11.7333 33.334 8 37.0673 8 41.6673C8 46.2673 11.7333 50.0006 16.3333 50.0006Z" fill="#0ACF83"/>
<path d="M8 24.9993C8 20.3993 11.7333 16.666 16.3333 16.666H24.6666V33.3326H16.3333C11.7333 33.3326 8 29.5993 8 24.9993Z" fill="#A259FF"/>
<path d="M8 8.33331C8 3.73333 11.7333 0 16.3333 0H24.6666V16.6666H16.3333C11.7333 16.6666 8 12.9333 8 8.33331Z" fill="#F24E1E"/>
<path d="M24.666 0H32.9993C37.5993 0 41.3326 3.73333 41.3326 8.33331C41.3326 12.9333 37.5993 16.6666 32.9993 16.6666H24.666V0Z" fill="#FF7262"/>
<path d="M41.3326 24.9993C41.3326 29.5993 37.5993 33.3326 32.9993 33.3326C28.3993 33.3326 24.666 29.5993 24.666 24.9993C24.666 20.3993 28.3993 16.666 32.9993 16.666C37.5993 16.666 41.3326 20.3993 41.3326 24.9993Z" fill="#1ABCFE"/>
</g>
<defs>
<clipPath id="clip0_1799_70643">
<rect width="50" height="50" fill="white"/>
</clipPath>
</defs>
</svg>
