<svg width="50" height="50" viewBox="0 0 50 50" fill="none" xmlns="http://www.w3.org/2000/svg">
<path fill-rule="evenodd" clip-rule="evenodd" d="M38.7921 20.4872C38.5023 20.1265 37.9912 20 37.0164 20H33.9292C32.9819 20 32.4434 20.1752 32.0062 20.565C31.354 21.1062 30.6452 22.1876 30.0381 24.8673C29.431 27.5469 29.6469 28.5991 30.0611 29.1695C30.3323 29.5544 30.7925 29.7345 31.7447 29.7345H34.7806C35.6319 29.7345 36.2894 29.5788 36.754 29.1695C37.3846 28.6239 37.9916 27.8053 38.5018 25.4571L38.7186 24.5066C38.7461 24.3752 38.6722 24.273 38.5483 24.273H34.3438C34.2798 24.2769 34.2188 24.302 34.1705 24.3443C34.1222 24.3865 34.0894 24.4437 34.077 24.5066L33.7363 26.0509C33.7089 26.1779 33.7823 26.2854 33.9067 26.2854H35.6545L35.6319 26.358C35.489 27.0549 35.2408 27.3133 35.1213 27.4199C35.0195 27.4934 34.8823 27.5177 34.5138 27.5177H33.2717C32.858 27.5177 32.7337 27.4934 32.6876 27.4155C32.6142 27.2885 32.5452 26.8257 32.9823 24.8673C33.4191 22.9089 33.6859 22.4704 33.8332 22.3385C33.9297 22.2655 34.0492 22.2412 34.4633 22.2412H35.6315C36.0456 22.2412 36.1425 22.2655 36.193 22.3434C36.2 22.354 36.208 22.3646 36.216 22.3752C36.2846 22.4677 36.3722 22.585 36.2894 23.1133C36.262 23.2204 36.3354 23.323 36.4598 23.323H38.7182C38.7832 23.3201 38.8453 23.2955 38.8946 23.253C38.9439 23.2106 38.9774 23.1528 38.9899 23.0889C39.2518 21.5934 39.1324 20.9257 38.7921 20.4872V20.4872ZM17.9261 20.0779C18.8783 20.0779 19.3155 20.2584 19.5823 20.6137C19.973 21.1597 20.1894 22.2412 19.5593 24.8916C18.9243 27.5469 18.2204 28.5996 17.5628 29.1695C17.1257 29.5301 16.592 29.7049 15.6447 29.7049H12.604C11.6562 29.7049 11.1916 29.5301 10.9478 29.1695C10.5615 28.6283 10.3407 27.5469 10.9938 24.8916C11.6288 22.2412 12.3602 21.1836 13.0181 20.6186C13.4549 20.2584 13.9885 20.0779 14.9363 20.0779H17.9261V20.0779ZM13.5009 27.3673C13.5469 27.4451 13.6712 27.4646 14.0619 27.4646H15.2305C15.6168 27.4646 15.7642 27.4451 15.8606 27.3673C15.9845 27.2598 16.2013 27.0067 16.6889 24.892C17.1947 22.7823 17.1027 22.5243 17.0292 22.4217C16.9832 22.3438 16.8589 22.3146 16.4681 22.3146H15.327C14.9363 22.3146 14.7934 22.3438 14.6925 22.4217C14.573 22.519 14.3518 22.7823 13.8642 24.892C13.3305 27.031 13.4274 27.2598 13.5009 27.3673V27.3673ZM24.5182 26.412C25.1022 26.412 25.2036 26.4659 25.2956 26.5925L25.3 26.5969C25.3921 26.7434 25.4425 26.8752 25.346 27.5717C25.2169 28.2107 25.1111 28.8542 25.0288 29.5009C25.0228 29.5263 25.0228 29.5527 25.0286 29.578C25.0344 29.6034 25.046 29.6272 25.0624 29.6474C25.0788 29.6676 25.0996 29.6839 25.1232 29.6948C25.1468 29.7058 25.1726 29.7112 25.1987 29.7106H27.6044C27.7288 29.7106 27.8483 29.5792 27.8713 29.4522C27.9682 28.7345 28.0907 28.0213 28.2394 27.3133C28.5292 25.9199 28.0695 25.6133 27.2182 25.3841V25.3549C28.3129 25.1261 28.9434 24.6093 29.3571 22.8066C29.6748 21.4668 29.5783 21.004 29.2881 20.5655C29.0168 20.2049 28.5292 20.0788 27.6323 20.0788H22.0841C22.0207 20.0823 21.9602 20.1067 21.912 20.148C21.8638 20.1893 21.8305 20.2454 21.8173 20.3075L19.6553 29.4766C19.6323 29.6084 19.7013 29.7106 19.8257 29.7106H22.1854C22.2495 29.7067 22.3105 29.6816 22.3588 29.6392C22.4071 29.5969 22.44 29.5396 22.4522 29.4766L23.1053 26.646C23.1178 26.5823 23.1513 26.5246 23.2005 26.4822C23.2497 26.4399 23.3117 26.4153 23.3766 26.4124H24.5177L24.5182 26.412ZM25.1252 24.327C25.6359 24.327 25.7832 24.3027 25.8797 24.2248C26.05 24.0929 26.1739 23.8642 26.2938 23.2987C26.4133 22.7288 26.3903 22.5195 26.2938 22.3925C26.2199 22.3146 26.1005 22.2951 25.5898 22.2951H24.3248C24.2613 22.2987 24.2008 22.3231 24.1526 22.3645C24.1043 22.406 24.0711 22.4621 24.058 22.5243L23.6898 24.1221C23.6668 24.2491 23.7359 24.3513 23.8602 24.3513H25.1252V24.327V24.327ZM46.5018 29.7345H39.2337C39.1098 29.7345 39.0359 29.6323 39.0589 29.5005L41.1014 20.2292C41.1324 20.0965 41.2439 20.0027 41.3726 20H49.8368C49.9793 20 50.0527 20.1509 49.9563 20.3071C49.5881 20.9257 48.1806 22.2412 46.5983 22.2412H43.654C43.5906 22.2447 43.53 22.2691 43.4818 22.3106C43.4336 22.352 43.4003 22.4082 43.3872 22.4704L43.1713 23.5031C43.1483 23.6297 43.2173 23.7319 43.3417 23.7319H47.3067C47.4262 23.7319 47.5001 23.8345 47.4771 23.9659L47.1364 25.5885C47.123 25.6514 47.0891 25.708 47.04 25.7494C46.9909 25.7909 46.9293 25.8147 46.8651 25.8173H42.9045C42.8404 25.8212 42.7794 25.8463 42.7311 25.8887C42.6828 25.9311 42.6499 25.9883 42.6377 26.0513L42.366 27.235C42.343 27.3668 42.412 27.469 42.5363 27.469H46.9894C47.1089 27.469 47.1824 27.5664 47.1594 27.6978L46.7687 29.4766C46.7609 29.5438 46.7301 29.6063 46.6814 29.6533C46.6327 29.7003 46.5693 29.729 46.5018 29.7345V29.7345ZM1.58669 20.0779H11.5553C11.6792 20.0779 11.7252 20.1801 11.6792 20.3314L10.6349 22.0854C10.6217 22.1483 10.5878 22.205 10.5387 22.2464C10.4895 22.2879 10.4279 22.3117 10.3637 22.3142H6.44909C6.38577 22.3191 6.32582 22.3447 6.27842 22.3869C6.23103 22.4292 6.19881 22.4859 6.1867 22.5482L5.819 23.9903C5.796 24.1217 5.86502 24.2243 5.98892 24.2243H8.58804C8.71193 24.2243 8.78582 24.3261 8.75839 24.4531L8.37166 26.0513C8.34866 26.1779 8.22476 26.285 8.10485 26.285H5.5013C5.43783 26.2886 5.3773 26.313 5.32908 26.3544C5.28085 26.3958 5.24761 26.452 5.23449 26.5142L4.50307 29.5009C4.48006 29.6323 4.36059 29.7345 4.23626 29.7345H0.174302C0.0504075 29.7345 -0.0186192 29.6323 0.00438966 29.5005L0.247753 28.5748C0.271204 28.473 0.349523 28.3704 0.441559 28.3412C0.504833 28.3235 0.580497 28.308 0.664568 28.2903C1.19643 28.1788 2.06723 27.9965 2.34156 26.9283L2.41457 26.592L3.2659 23.2204L3.33493 22.8797C3.5982 21.8708 2.24466 21.6518 1.52961 21.5358C1.37121 21.5102 1.24377 21.4894 1.17298 21.4664C1.09908 21.4133 1.05351 21.3398 1.07607 21.2327L1.31988 20.3071C1.333 20.2449 1.36624 20.1887 1.41447 20.1473C1.46269 20.1059 1.52322 20.0815 1.58669 20.0779V20.0779Z" fill="#18B69B"/>
</svg>
