<svg width="50" height="50" viewBox="0 0 50 50" fill="none" xmlns="http://www.w3.org/2000/svg">
<path d="M24.9996 48.0589L34.2061 19.7246H15.793L24.9994 48.0589H24.9996Z" fill="#E24329"/>
<path d="M24.9997 48.0589L15.793 19.7246H2.89062L24.9997 48.0589Z" fill="#FC6D26"/>
<path d="M2.89097 19.7246L0.0933071 28.3353C-0.0310856 28.7181 -0.0311028 29.1305 0.0932581 29.5133C0.217619 29.8961 0.459974 30.2297 0.785589 30.4663L25 48.0591L2.89077 19.7248L2.89097 19.7246Z" fill="#FCA326"/>
<path d="M2.89062 19.7242H15.793L10.2483 2.65854C9.96296 1.78039 8.72069 1.78058 8.43553 2.65854L2.89062 19.7242Z" fill="#E24329"/>
<path d="M25.0002 48.0589L34.2066 19.7246H47.1092L25 48.0589H25.0002Z" fill="#FC6D26"/>
<path d="M47.109 19.7246L49.9067 28.3353C50.0311 28.7182 50.0311 29.1305 49.9067 29.5133C49.7823 29.8961 49.5399 30.2297 49.2142 30.4663L25 48.0591L47.109 19.7248V19.7246Z" fill="#FCA326"/>
<path d="M47.1096 19.7242H34.207L39.7519 2.65854C40.0373 1.78039 41.2796 1.78058 41.5647 2.65854L47.1096 19.7242Z" fill="#E24329"/>
</svg>
