<svg width="50" height="50" viewBox="0 0 50 50" fill="none" xmlns="http://www.w3.org/2000/svg">
<g clip-path="url(#clip0_1799_70527)">
<path d="M5.21724 37.0496L7.05273 38.1094L27.5009 2.69316L25.6654 1.6334L5.21724 37.0496Z" fill="#E535AB"/>
<path d="M45.6932 34.2188H4.79688V36.3383H45.6932V34.2188Z" fill="#E535AB"/>
<path d="M5.60277 35.4082L26.0586 47.2188L27.1183 45.3833L6.66252 33.5727L5.60277 35.4082Z" fill="#E535AB"/>
<path d="M23.3723 4.62698L43.8281 16.4375L44.8879 14.602L24.4321 2.79148L23.3723 4.62698Z" fill="#E535AB"/>
<path d="M5.61212 14.5942L6.67188 16.4297L27.1277 4.61917L26.0679 2.78367L5.61212 14.5942Z" fill="#E535AB"/>
<path d="M23.005 2.69121L43.4531 38.1074L45.2886 37.0477L24.8405 1.63145L23.005 2.69121Z" fill="#E535AB"/>
<path d="M8.53748 13.1895H6.41797V36.8105H8.53748V13.1895Z" fill="#E535AB"/>
<path d="M44.0844 13.1895H41.9648V36.8105H44.0844V13.1895Z" fill="#E535AB"/>
<path d="M24.7735 44.719L25.6992 46.3223L43.4903 36.0503L42.5646 34.447L24.7735 44.719Z" fill="#E535AB"/>
<path d="M46.892 37.4999C45.6662 39.6321 42.9339 40.3599 40.8016 39.1342C38.6693 37.9084 37.9415 35.1761 39.1673 33.0438C40.393 30.9115 43.1254 30.1837 45.2577 31.4095C47.4027 32.648 48.1305 35.3676 46.892 37.4999Z" fill="#E535AB"/>
<path d="M11.3197 16.9569C10.094 19.0892 7.3616 19.8169 5.22932 18.5912C3.09705 17.3655 2.36926 14.6331 3.595 12.5008C4.82074 10.3685 7.55312 9.64075 9.6854 10.8665C11.8177 12.105 12.5455 14.8246 11.3197 16.9569Z" fill="#E535AB"/>
<path d="M3.60868 37.4999C2.38293 35.3676 3.11072 32.648 5.243 31.4095C7.37527 30.1837 10.0949 30.9115 11.3334 33.0438C12.5591 35.1761 11.8314 37.8957 9.69907 39.1342C7.55403 40.3599 4.83442 39.6321 3.60868 37.4999Z" fill="#E535AB"/>
<path d="M39.179 16.9569C37.9532 14.8246 38.681 12.105 40.8133 10.8665C42.9456 9.64075 45.6652 10.3685 46.9037 12.5008C48.1294 14.6331 47.4017 17.3527 45.2694 18.5912C43.1371 19.8169 40.4047 19.0892 39.179 16.9569Z" fill="#E535AB"/>
<path d="M25.249 50C22.7848 50 20.793 48.0082 20.793 45.544C20.793 43.0797 22.7848 41.0879 25.249 41.0879C27.7133 41.0879 29.7051 43.0797 29.7051 45.544C29.7051 47.9954 27.7133 50 25.249 50Z" fill="#E535AB"/>
<path d="M25.249 8.91216C22.7848 8.91216 20.793 6.92033 20.793 4.45608C20.793 1.99183 22.7848 0 25.249 0C27.7133 0 29.7051 1.99183 29.7051 4.45608C29.7051 6.92033 27.7133 8.91216 25.249 8.91216Z" fill="#E535AB"/>
</g>
<defs>
<clipPath id="clip0_1799_70527">
<rect width="50" height="50" fill="white"/>
</clipPath>
</defs>
</svg>
