<svg width="50" height="50" viewBox="0 0 50 50" fill="none" xmlns="http://www.w3.org/2000/svg">
<path d="M48.9375 25.5632C48.9375 23.9173 48.7917 22.3548 48.5417 20.834H25V30.2298H38.4792C37.875 33.3132 36.1042 35.9173 33.4792 37.6882V43.9382H41.5208C46.2292 39.584 48.9375 33.1673 48.9375 25.5632Z" fill="#4285F4"/>
<path d="M24.998 49.9987C31.748 49.9987 37.3939 47.7487 41.5189 43.9362L33.4772 37.6862C31.2272 39.1862 28.373 40.1029 24.998 40.1029C18.4772 40.1029 12.9564 35.707 10.9772 29.7695H2.68555V36.207C6.78971 44.3737 15.2272 49.9987 24.998 49.9987Z" fill="#34A853"/>
<path d="M10.9792 29.7682C10.4583 28.2682 10.1875 26.6641 10.1875 24.9974C10.1875 23.3307 10.4792 21.7266 10.9792 20.2266V13.7891H2.6875C0.979165 17.1641 0 20.9557 0 24.9974C0 29.0391 0.979165 32.8307 2.6875 36.2057L10.9792 29.7682Z" fill="#FBBC05"/>
<path d="M24.998 9.89583C28.6855 9.89583 31.9772 11.1667 34.5814 13.6458L41.7064 6.52084C37.3939 2.47917 31.748 0 24.998 0C15.2272 0 6.78971 5.62501 2.68555 13.7917L10.9772 20.2292C12.9564 14.2917 18.4772 9.89583 24.998 9.89583Z" fill="#EA4335"/>
</svg>
