<svg width="50" height="50" viewBox="0 0 50 50" fill="none" xmlns="http://www.w3.org/2000/svg">
<path d="M50 0H0V50H50V0Z" fill="#F7DF1E"/>
<path d="M33.5882 39.0625C34.5954 40.7069 35.9057 41.9156 38.2232 41.9156C40.17 41.9156 41.4136 40.9426 41.4136 39.5982C41.4136 37.9871 40.1358 37.4164 37.993 36.4791L36.8184 35.9752C33.4279 34.5307 31.1755 32.7212 31.1755 28.8958C31.1755 25.372 33.8605 22.6895 38.0565 22.6895C41.0438 22.6895 43.1914 23.7291 44.739 26.4514L41.0803 28.8006C40.2747 27.3561 39.4057 26.7871 38.0565 26.7871C36.6803 26.7871 35.8081 27.6601 35.8081 28.8006C35.8081 30.2101 36.6811 30.7807 38.697 31.6537L39.8716 32.1569C43.8636 33.8688 46.1176 35.6141 46.1176 39.5379C46.1176 43.768 42.7946 46.0855 38.3319 46.0855C33.9684 46.0855 31.1493 44.0061 29.77 41.2807L33.5882 39.0625ZM16.9906 39.4696C17.7287 40.7791 18.4001 41.8863 20.0144 41.8863C21.5581 41.8863 22.5319 41.2823 22.5319 38.9339V22.9577H27.2303V38.9974C27.2303 43.8625 24.3779 46.0768 20.2144 46.0768C16.4525 46.0768 14.274 44.1299 13.166 41.7851L16.9906 39.4696Z" fill="black"/>
</svg>
