<svg width="50" height="50" viewBox="0 0 50 50" fill="none" xmlns="http://www.w3.org/2000/svg">
<path d="M48.7806 23.6002L27.2641 2.08377L25.1788 0L1.57861 23.6002C0.807128 24.3738 0.807128 25.6262 1.57861 26.3982L16.3761 41.1952L25.1788 50L48.7806 26.3982C49.5527 25.6262 49.5527 24.3738 48.7806 23.6002V23.6002ZM25.1788 32.3904L17.7882 25.0003L25.1788 17.6075L32.571 25.0003L25.1788 32.3904Z" fill="#2684FF"/>
<path d="M25.1792 17.6083C20.3406 12.7676 20.3159 4.9277 25.1277 0.0585938L8.95117 16.2288L17.756 25.0336L25.1792 17.6083Z" fill="url(#paint0_linear_1799_70446)"/>
<path d="M32.5904 24.9785L25.1777 32.3896C27.5138 34.7235 28.8276 37.8914 28.8276 41.1944C28.8276 44.4974 27.5138 47.6632 25.1777 49.9993L41.3932 33.7833L32.5904 24.9785V24.9785Z" fill="url(#paint1_linear_1799_70446)"/>
<defs>
<linearGradient id="paint0_linear_1799_70446" x1="22.0023" y1="11.9892" x2="13.5379" y2="20.4516" gradientUnits="userSpaceOnUse">
<stop stop-color="#0052CC"/>
<stop offset="1" stop-color="#2684FF"/>
</linearGradient>
<linearGradient id="paint1_linear_1799_70446" x1="28.446" y1="37.9285" x2="36.8936" y2="29.481" gradientUnits="userSpaceOnUse">
<stop stop-color="#0052CC"/>
<stop offset="1" stop-color="#2684FF"/>
</linearGradient>
</defs>
</svg>
