<svg width="50" height="50" viewBox="0 0 50 50" fill="none" xmlns="http://www.w3.org/2000/svg">
<path fill-rule="evenodd" clip-rule="evenodd" d="M49.5421 11.3113C49.5602 11.378 49.5694 11.4467 49.5695 11.5157V22.2481C49.5695 22.3859 49.5332 22.5212 49.4641 22.6404C49.3951 22.7596 49.2958 22.8584 49.1763 22.927L40.1684 28.1132V38.3926C40.1684 38.6724 40.0198 38.9306 39.7772 39.0715L20.974 49.8958C20.931 49.9202 20.884 49.9359 20.8371 49.9525C20.8195 49.9584 20.8028 49.9691 20.7843 49.974C20.6528 50.0087 20.5146 50.0087 20.3832 49.974C20.3617 49.9682 20.3421 49.9564 20.3216 49.9486C20.2785 49.933 20.2335 49.9193 20.1925 49.8958L1.39322 39.0715C1.27379 39.0029 1.17456 38.904 1.10553 38.7848C1.03649 38.6656 1.00009 38.5304 1 38.3926V6.19554C1 6.12511 1.00978 6.05664 1.02739 5.99012C1.03326 5.96762 1.04695 5.94708 1.05478 5.92459C1.06945 5.8835 1.08314 5.84144 1.10466 5.80329C1.11934 5.77786 1.14085 5.75732 1.15846 5.73384C1.18096 5.70254 1.2015 5.67026 1.22791 5.64288C1.25041 5.62038 1.27975 5.60375 1.30519 5.58419C1.33355 5.56071 1.35898 5.53528 1.39126 5.51669H1.39224L10.7924 0.104537C10.9114 0.0360469 11.0463 0 11.1836 0C11.3209 0 11.4559 0.0360469 11.5749 0.104537L20.975 5.51669H20.9769C21.0083 5.53626 21.0347 5.56071 21.063 5.58321C21.0885 5.60277 21.1168 5.62038 21.1393 5.6419C21.1667 5.67026 21.1863 5.70254 21.2098 5.73384C21.2264 5.75732 21.2489 5.77786 21.2626 5.80329C21.2851 5.84242 21.2978 5.8835 21.3134 5.92459C21.3213 5.94708 21.335 5.96762 21.3408 5.9911C21.3588 6.05776 21.368 6.12649 21.3682 6.19554V26.3055L29.2013 21.7952V11.5148C29.2013 11.4463 29.2111 11.3768 29.2287 11.3113C29.2355 11.2878 29.2483 11.2673 29.2561 11.2448C29.2717 11.2037 29.2854 11.1617 29.307 11.1235C29.3216 11.0981 29.3431 11.0775 29.3598 11.0541C29.3833 11.0228 29.4028 10.9905 29.4302 10.9631C29.4527 10.9406 29.4811 10.924 29.5065 10.9044C29.5358 10.8809 29.5613 10.8555 29.5926 10.8369H29.5936L38.9946 5.42475C39.1136 5.35616 39.2486 5.32006 39.3859 5.32006C39.5233 5.32006 39.6582 5.35616 39.7772 5.42475L49.1773 10.8369C49.2105 10.8565 49.236 10.8809 49.2653 10.9034C49.2898 10.923 49.3181 10.9406 49.3406 10.9621C49.368 10.9905 49.3876 11.0228 49.4111 11.0541C49.4287 11.0775 49.4502 11.0981 49.4639 11.1235C49.4864 11.1617 49.4991 11.2037 49.5148 11.2448C49.5236 11.2673 49.5363 11.2878 49.5421 11.3113ZM48.0025 21.7952V12.8705L44.713 14.7642L40.1684 17.3808V26.3055L48.0035 21.7952H48.0025ZM38.6024 37.9397V29.0091L34.1322 31.5621L21.3672 38.8475V47.8622L38.6024 37.9397ZM2.56701 7.55029V37.9397L19.8002 47.8612V38.8485L10.7972 33.7532L10.7943 33.7513L10.7904 33.7493C10.7601 33.7317 10.7346 33.7063 10.7063 33.6847C10.6818 33.6652 10.6535 33.6495 10.6319 33.628L10.63 33.6251C10.6045 33.6006 10.5869 33.5703 10.5654 33.5429C10.5459 33.5165 10.5224 33.494 10.5067 33.4666L10.5058 33.4637C10.4881 33.4343 10.4774 33.3991 10.4647 33.3659C10.452 33.3365 10.4353 33.3091 10.4275 33.2778V33.2769C10.4177 33.2397 10.4158 33.2006 10.4118 33.1624C10.4079 33.1331 10.4001 33.1037 10.4001 33.0744V33.0724V12.0606L5.85656 9.44303L2.56701 7.55126V7.55029ZM11.1846 1.6872L3.35247 6.19554L11.1826 10.7039L19.0138 6.19456L11.1826 1.6872H11.1846ZM15.2577 29.823L19.8012 27.2074V7.55029L16.5117 9.444L11.9671 12.0606V31.7177L15.2577 29.823ZM39.3859 7.00741L31.5548 11.5157L39.3859 16.0241L47.2161 11.5148L39.3859 7.00741ZM38.6024 17.3808L34.0579 14.7642L30.7683 12.8705V21.7952L35.3119 24.4108L38.6024 26.3055V17.3808ZM20.5828 37.4927L32.0693 30.9351L37.8111 27.6583L29.9858 23.1529L20.976 28.3401L12.7643 33.0675L20.5828 37.4927Z" fill="#FF2D20"/>
</svg>
