<svg width="50" height="50" viewBox="0 0 50 50" fill="none" xmlns="http://www.w3.org/2000/svg">
<path d="M0 28.2843H1.75993V21.3346L4.48439 27.3931C4.8059 28.1263 5.24595 28.3859 6.10893 28.3859C6.97204 28.3859 7.3951 28.1265 7.71674 27.3931L10.4412 21.3346V28.2842H12.2011V21.346C12.2011 20.669 11.9303 20.3419 11.372 20.1728C10.0351 19.7553 9.13818 20.1163 8.73197 21.0189L6.05822 26.9982L3.46916 21.0189C3.07995 20.1163 2.16614 19.7553 0.829261 20.1728C0.270801 20.3419 0 20.6691 0 21.3459V28.2843V28.2843ZM13.6645 22.6277H15.4239V26.4564C15.4074 26.6645 15.4906 27.1526 16.4547 27.1677C16.9466 27.1755 20.2509 27.1677 20.2817 27.1677V22.609H22.0452C22.0533 22.609 22.0434 28.8259 22.0436 28.8524C22.0532 30.3856 20.1411 30.7187 19.2598 30.7444H13.7026V29.5604C13.7125 29.5604 19.2557 29.5616 19.2697 29.5602C20.4023 29.4406 20.2686 28.8776 20.2684 28.6881V28.2265H16.5277C14.7872 28.2105 13.679 27.4508 13.6653 26.5772C13.664 26.4962 13.7029 22.6659 13.6644 22.6275L13.6645 22.6277Z" fill="#00618A"/>
<path d="M23.4025 28.2851H28.4622C29.0545 28.2851 29.6298 28.161 30.0869 27.9466C30.8483 27.5969 31.2206 27.1232 31.2206 26.5025V25.2165C31.2206 24.7087 30.7976 24.2348 29.9683 23.9191C29.5283 23.7497 28.9868 23.6595 28.4622 23.6595H26.3298C25.6193 23.6595 25.2808 23.4452 25.1963 22.9714C25.1793 22.9149 25.1793 22.8697 25.1793 22.8134V22.0125C25.1793 21.9673 25.1793 21.922 25.1963 21.8657C25.2808 21.5047 25.4671 21.4031 26.0931 21.3467C26.1438 21.3467 26.2115 21.3354 26.2623 21.3354H31.2883V20.1622H26.3469C25.6362 20.1622 25.2638 20.2073 24.9255 20.3087C23.8762 20.636 23.4193 21.155 23.4193 22.0574V23.0842C23.4193 23.874 24.3163 24.5508 25.8223 24.7087C25.9917 24.72 26.1608 24.7312 26.3299 24.7312H28.1575C28.2254 24.7312 28.2931 24.7312 28.3438 24.7426C28.9022 24.7878 29.1391 24.8892 29.3084 25.0923C29.4099 25.1937 29.4437 25.2954 29.4437 25.4082V26.4347C29.4437 26.559 29.3592 26.717 29.19 26.8522C29.0376 26.9876 28.7838 27.078 28.4453 27.1006C28.3776 27.1006 28.3269 27.1118 28.2592 27.1118H23.4023V28.2849L23.4025 28.2851ZM42.1996 26.2431C42.1996 27.4502 43.0964 28.1272 44.9072 28.2626C45.0763 28.2738 45.2457 28.2851 45.4148 28.2851H50.0009V27.1118H45.381C44.3487 27.1118 43.9595 26.8522 43.9595 26.2318V20.1621H42.1996V26.2431ZM32.3439 26.3046V22.1216C32.3439 21.0589 33.0901 20.4144 34.5652 20.2109C34.7225 20.1885 34.8812 20.1771 35.0401 20.177H38.3807C38.5502 20.177 38.703 20.1884 38.8726 20.2109C40.3478 20.4144 41.0939 21.0589 41.0939 22.1216V26.3045C41.0939 27.1665 40.7771 27.6281 40.0468 27.9287L41.7804 29.4935H39.7369L38.3344 28.2275L36.9224 28.317H35.0401C34.7179 28.317 34.3788 28.2716 34.0057 28.1699C32.8866 27.8647 32.3439 27.2768 32.3439 26.3045V26.3046ZM34.2433 26.2029C34.2433 26.2595 34.2603 26.316 34.2773 26.3838C34.379 26.8699 34.8368 27.1413 35.5321 27.1413H37.131L35.6623 25.8154H37.7056L38.9867 26.9717C39.2227 26.8459 39.3781 26.6535 39.4324 26.4064C39.4492 26.35 39.4492 26.2934 39.4492 26.2369V22.2235C39.4492 22.1783 39.4492 22.1217 39.4324 22.0651C39.3306 21.6129 38.8727 21.353 38.1945 21.353H35.5321C34.7522 21.353 34.2434 21.6922 34.2434 22.2235V26.2029H34.2433Z" fill="#E48E00"/>
</svg>
