<svg width="50" height="50" viewBox="0 0 50 50" fill="none" xmlns="http://www.w3.org/2000/svg">
<path d="M36.1968 17.3513L36.1786 17.3435C36.1681 17.3396 36.1577 17.3357 36.1486 17.3265C36.1336 17.3105 36.1225 17.2912 36.1162 17.2701C36.1099 17.2491 36.1085 17.2269 36.1121 17.2053L37.1201 11.0425L41.8471 15.7708L36.931 17.8625C36.9173 17.868 36.9027 17.8706 36.888 17.8703H36.8684C36.8619 17.8664 36.8554 17.8612 36.8423 17.8481C36.6594 17.6444 36.4406 17.476 36.1968 17.3513V17.3513ZM43.0533 16.9757L48.1077 22.0301C49.1574 23.0811 49.6829 23.6054 49.8746 24.213C49.9033 24.303 49.9268 24.393 49.9451 24.4856L37.866 19.3699C37.8595 19.3672 37.853 19.3646 37.8464 19.3621C37.7982 19.3425 37.7421 19.3204 37.7421 19.2708C37.7421 19.2213 37.7995 19.1978 37.8477 19.1782L37.8634 19.1717L43.0533 16.9757ZM49.739 26.1078C49.4782 26.5981 48.9697 27.1066 48.109 27.9686L42.4105 33.6658L35.0402 32.131L35.0011 32.1232C34.9359 32.1127 34.8667 32.101 34.8667 32.0423C34.8387 31.7383 34.7485 31.4433 34.6015 31.1756C34.4546 30.908 34.2541 30.6735 34.0126 30.4866C33.9826 30.4567 33.9904 30.4097 33.9996 30.3667C33.9996 30.3602 33.9996 30.3536 34.0022 30.3484L35.3883 21.8384L35.3936 21.8097C35.4014 21.7445 35.4131 21.6689 35.4718 21.6689C35.7689 21.6319 36.0556 21.5362 36.3153 21.3874C36.575 21.2385 36.8025 21.0394 36.9845 20.8017C36.9962 20.7887 37.004 20.7743 37.0197 20.7665C37.0614 20.747 37.1109 20.7665 37.154 20.7848L49.7377 26.1078H49.739ZM41.0999 34.9764L31.7293 44.347L33.3332 34.4887L33.3358 34.4756C33.3371 34.4626 33.3397 34.4495 33.3436 34.4378C33.3567 34.4065 33.3906 34.3935 33.4232 34.3804L33.4388 34.3739C33.79 34.2241 34.1006 33.993 34.3451 33.6997C34.3764 33.6632 34.4142 33.628 34.4625 33.6215C34.475 33.6194 34.4878 33.6194 34.5003 33.6215L41.0986 34.9777L41.0999 34.9764ZM29.7459 46.3304L28.6896 47.3867L17.0122 30.5101C17.0079 30.5039 17.0036 30.4979 16.9991 30.4919C16.9809 30.4671 16.9613 30.4423 16.9652 30.4136C16.9652 30.3928 16.9796 30.3745 16.9939 30.3588L17.007 30.3419C17.0422 30.2897 17.0722 30.2376 17.1048 30.1815L17.1308 30.1359L17.1347 30.132C17.153 30.1007 17.17 30.0707 17.2013 30.0537C17.2286 30.0407 17.2665 30.0459 17.2964 30.0524L30.2336 32.7204C30.2698 32.726 30.3039 32.7409 30.3327 32.7635C30.3496 32.7804 30.3535 32.7987 30.3575 32.8195C30.4477 33.161 30.6156 33.4769 30.8482 33.7427C31.0807 34.0085 31.3716 34.2169 31.698 34.3517C31.7345 34.37 31.7188 34.4104 31.7019 34.4535C31.6934 34.4723 31.6869 34.492 31.6823 34.5121C31.5193 35.5032 30.1214 44.0288 29.7459 46.3304ZM27.5395 48.5355C26.761 49.3062 26.302 49.7143 25.783 49.8786C25.2712 50.0405 24.7221 50.0405 24.2103 49.8786C23.6027 49.6856 23.0771 49.1614 22.0274 48.1104L10.3004 36.3834L13.3635 31.6329C13.3779 31.6094 13.3922 31.5885 13.4157 31.5716C13.4483 31.5481 13.4952 31.5585 13.5344 31.5716C14.2374 31.7837 14.9923 31.7454 15.6703 31.4634C15.7055 31.4503 15.7408 31.4412 15.7681 31.466C15.7818 31.4785 15.7941 31.4925 15.8047 31.5077L27.5395 48.5368V48.5355ZM9.16983 35.2528L6.47965 32.5626L11.7922 30.2963C11.8058 30.2903 11.8204 30.2872 11.8352 30.2871C11.8796 30.2871 11.9057 30.3315 11.9291 30.3719C11.9825 30.454 12.0391 30.5341 12.0986 30.6118L12.1156 30.6327C12.1312 30.6549 12.1208 30.677 12.1052 30.6979L9.17113 35.2528H9.16983ZM5.28908 31.3721L1.8856 27.9686C1.30662 27.3896 0.88673 26.9697 0.594631 26.6085L10.9433 28.7549C10.9563 28.7573 10.9693 28.7595 10.9824 28.7614C11.0463 28.7719 11.1167 28.7836 11.1167 28.8436C11.1167 28.9088 11.0398 28.9388 10.9746 28.9636L10.9446 28.9766L5.28908 31.3721ZM0 24.8585C0.0117937 24.6393 0.0512261 24.4224 0.117361 24.213C0.310355 23.6054 0.834569 23.0811 1.8856 22.0301L6.24101 17.6747C8.24637 20.5851 10.2572 23.4918 12.2734 26.3946C12.3086 26.4416 12.3477 26.4938 12.3073 26.5329C12.1169 26.7428 11.9265 26.9723 11.7922 27.2214C11.7776 27.2534 11.7552 27.2812 11.727 27.3022C11.71 27.3127 11.6918 27.3088 11.6722 27.3048H11.6696L0 24.8572V24.8585ZM7.4068 16.5089L13.2605 10.6526C13.8121 10.8938 15.8164 11.7401 17.6068 12.4965C18.963 13.0702 20.1992 13.5918 20.5878 13.7614C20.6269 13.777 20.6621 13.7926 20.6791 13.8318C20.6895 13.8552 20.6843 13.8852 20.6791 13.91C20.5864 14.3327 20.6001 14.7719 20.7192 15.188C20.8382 15.604 21.0588 15.984 21.3611 16.2937C21.4002 16.3329 21.3611 16.3889 21.3272 16.4372L21.3089 16.4646L15.3626 25.6748C15.3469 25.7009 15.3326 25.7231 15.3065 25.74C15.2752 25.7596 15.2309 25.7505 15.1944 25.7413C14.9631 25.6807 14.7253 25.6483 14.4863 25.6448C14.2724 25.6448 14.0403 25.684 13.8056 25.727H13.8043C13.7782 25.7309 13.7547 25.7361 13.7339 25.7205C13.7108 25.7016 13.691 25.6792 13.6752 25.654L7.4055 16.5089H7.4068ZM14.4459 9.46984L22.0274 1.8883C23.0771 0.83857 23.6027 0.313052 24.2103 0.121362C24.7221 -0.0404539 25.2712 -0.0404539 25.783 0.121362C26.3906 0.313052 26.9162 0.83857 27.9659 1.8883L29.609 3.53136L24.2169 11.8823C24.2035 11.9066 24.1853 11.9279 24.1634 11.9449C24.1308 11.967 24.0851 11.9579 24.046 11.9449C23.6209 11.8158 23.1707 11.7924 22.7345 11.8764C22.2983 11.9605 21.8891 12.1496 21.5423 12.4273C21.5071 12.4639 21.455 12.443 21.4106 12.4234C20.7064 12.117 15.2296 9.80236 14.4459 9.46984V9.46984ZM30.7539 4.67628L35.7326 9.65501L34.5329 17.0853V17.1048C34.5318 17.1218 34.5283 17.1385 34.5225 17.1544C34.5094 17.1805 34.4834 17.1857 34.4573 17.1935C34.2008 17.2712 33.9592 17.3916 33.7427 17.5495C33.7334 17.5561 33.7246 17.5636 33.7166 17.5717C33.7023 17.5873 33.6879 17.6017 33.6644 17.6043C33.6453 17.6049 33.6263 17.6018 33.6084 17.5952L26.0216 14.3716L26.0073 14.3651C25.959 14.3456 25.9016 14.3221 25.9016 14.2725C25.857 13.8497 25.719 13.4422 25.4974 13.0794C25.4609 13.0194 25.4205 12.9568 25.4518 12.8955L30.7539 4.67628ZM25.6265 15.8986L32.7386 18.9109C32.7777 18.9292 32.8207 18.9461 32.8377 18.9865C32.8445 19.0108 32.8445 19.0366 32.8377 19.0609C32.8168 19.1652 32.7986 19.2839 32.7986 19.4038V19.6033C32.7986 19.6529 32.7477 19.6738 32.7008 19.6933L32.6864 19.6985C31.5598 20.1797 16.8687 26.4442 16.8466 26.4442C16.8244 26.4442 16.8009 26.4442 16.7788 26.422C16.7396 26.3829 16.7788 26.3281 16.814 26.2786C16.8202 26.27 16.8263 26.2613 16.8322 26.2525L22.6768 17.2026L22.6872 17.187C22.7211 17.1322 22.7603 17.0709 22.8229 17.0709L22.8815 17.0801C23.0146 17.0983 23.1319 17.1153 23.2506 17.1153C24.1373 17.1153 24.9588 16.6836 25.4544 15.9456C25.4662 15.9259 25.4811 15.9082 25.4987 15.8934C25.5339 15.8673 25.5861 15.8804 25.6265 15.8986V15.8986ZM17.4816 27.876L33.4949 21.0469C33.4949 21.0469 33.5184 21.0469 33.5406 21.0691C33.6279 21.1564 33.7023 21.2151 33.774 21.2699L33.8092 21.292C33.8418 21.3103 33.8744 21.3312 33.877 21.3651C33.877 21.3781 33.877 21.3859 33.8744 21.3977L32.5026 29.8242L32.4973 29.8581C32.4882 29.9233 32.4791 29.9976 32.4178 29.9976C32.0521 30.0223 31.6979 30.1358 31.3859 30.3283C31.0739 30.5207 30.8136 30.7864 30.6274 31.1021L30.6209 31.1126C30.6026 31.1426 30.5857 31.1713 30.5557 31.1869C30.5283 31.1999 30.4931 31.1947 30.4644 31.1882L17.6942 28.5541C17.6811 28.5515 17.496 27.8773 17.4816 27.876V27.876Z" fill="url(#paint0_radial_1854_65901)"/>
<defs>
<radialGradient id="paint0_radial_1854_65901" cx="0" cy="0" r="1" gradientUnits="userSpaceOnUse" gradientTransform="translate(-1.67687 24.2946) rotate(90) scale(49.945 57.6634)">
<stop stop-color="#20C6B7"/>
<stop offset="1" stop-color="#4D9ABF"/>
</radialGradient>
</defs>
</svg>
