<svg width="50" height="31" viewBox="0 0 50 31" fill="none" xmlns="http://www.w3.org/2000/svg">
<path d="M11.7988 7.82955H21.2293V8.5755H12.6633V14.1897H20.7185V14.9357H12.6633V21.0996H21.3276V21.8455H11.7988V7.82955ZM22.0741 7.82955H23.0761L27.5163 13.9934L32.0547 7.82955L38.2277 0L28.0861 14.6412L33.3121 21.8455H32.2709L27.5163 15.289L22.7421 21.8455H21.7205L26.9859 14.6412L22.0741 7.82955ZM33.6854 8.5755V7.82955H44.4323V8.5755H39.4813V21.8455H38.6168V8.5755H33.6854Z" fill="black"/>
<path d="M0 7.83008H1.08058L15.9811 30.0202L9.82343 21.846L0.903756 8.89011L0.864462 21.846H0V7.83008Z" fill="black"/>
<path d="M44.3442 20.8745C44.523 20.8745 44.6533 20.7383 44.6533 20.5623C44.6533 20.3863 44.523 20.2501 44.3442 20.2501C44.1676 20.2501 44.0352 20.3863 44.0352 20.5623C44.0352 20.7383 44.1676 20.8745 44.3442 20.8745ZM45.1937 20.0532C45.1937 20.5728 45.57 20.9122 46.1188 20.9122C46.7033 20.9122 47.0566 20.5623 47.0566 19.9547V17.8155H46.5856V19.9526C46.5856 20.2899 46.4153 20.4701 46.1146 20.4701C45.8455 20.4701 45.6625 20.3025 45.6562 20.0532H45.1937ZM47.6726 20.026C47.7062 20.5665 48.1583 20.9122 48.8311 20.9122C49.5502 20.9122 50.0001 20.5498 50.0001 19.9715C50.0001 19.5168 49.7436 19.2654 49.1213 19.1208L48.787 19.0391C48.3917 18.9469 48.2319 18.8233 48.2319 18.6075C48.2319 18.3351 48.48 18.157 48.8521 18.157C49.2054 18.157 49.4493 18.3309 49.4934 18.6096H49.9518C49.9245 18.1005 49.4745 17.7422 48.8585 17.7422C48.1961 17.7422 47.7546 18.1005 47.7546 18.6389C47.7546 19.0831 48.0048 19.3471 48.5536 19.4749L48.9447 19.5692C49.3462 19.6635 49.5229 19.8018 49.5229 20.0322C49.5229 20.3004 49.2453 20.4953 48.8669 20.4953C48.4611 20.4953 48.1793 20.313 48.1394 20.026H47.6726Z" fill="black"/>
</svg>
