<svg width="45" height="50" viewBox="0 0 45 50" fill="none" xmlns="http://www.w3.org/2000/svg">
<path d="M22.1851 50C21.5156 50 20.8506 49.8244 20.2635 49.4864L14.147 45.8651C13.2334 45.3542 13.6792 45.1735 13.9805 45.0694C15.1986 44.6429 15.4458 44.5466 16.7459 43.8082C16.8826 43.7302 17.0615 43.7578 17.2013 43.8403L21.9003 46.6287C22.07 46.7204 22.3108 46.7204 22.4681 46.6287L40.7898 36.053C40.9595 35.9567 41.0696 35.7595 41.0696 35.5577V14.4155C41.0696 14.2045 40.9595 14.0165 40.7862 13.911L22.4718 3.34446C22.3021 3.24357 22.0774 3.24357 21.9077 3.34446L3.59693 13.911C3.41945 14.0119 3.30663 14.2091 3.30663 14.4109V35.5531C3.30663 35.7549 3.4167 35.9475 3.59097 36.0438L8.60824 38.9423C11.3324 40.3044 12.9972 38.6992 12.9972 37.0849V16.2178C12.9972 15.9197 13.2311 15.6904 13.5292 15.6904H15.8498C16.1387 15.6904 16.3772 15.9197 16.3772 16.2178V37.0941C16.3772 40.7263 14.396 42.813 10.9518 42.813C9.89237 42.813 9.05768 42.813 6.72791 41.6665L1.92161 38.8964C0.733788 38.2085 0 36.9244 0 35.5531V14.4109C0 13.035 0.733788 11.7509 1.92161 11.0722L20.2617 0.491866C21.422 -0.163955 22.9629 -0.163955 24.1141 0.491866L42.4312 11.0767C43.6145 11.7601 44.3528 13.0396 44.3528 14.4155V35.5577C44.3528 36.929 43.6145 38.2085 42.4312 38.8964L24.1141 49.4767C23.527 49.8161 22.8621 49.9904 22.1833 49.9904" fill="#689F63"/>
<path d="M27.8439 35.4312C19.8273 35.4312 18.1465 31.7513 18.1465 28.6648C18.1465 28.3713 18.3831 28.1374 18.6771 28.1374H21.0436C21.305 28.1374 21.5251 28.3277 21.5664 28.5859C21.9241 30.9973 22.9881 32.2135 27.8357 32.2135C31.6972 32.2135 33.3391 31.3413 33.3391 29.2935C33.3391 28.1149 32.8713 27.2389 26.8726 26.6519C21.8553 26.1566 18.7551 25.0513 18.7551 21.0384C18.7551 17.342 21.8737 15.1406 27.0973 15.1406C32.963 15.1406 35.8706 17.1769 36.2375 21.5521C36.2513 21.7034 36.1963 21.8502 36.0954 21.9603C35.9945 22.0657 35.8523 22.1299 35.7055 22.1299H33.3253C33.0777 22.1299 32.8621 21.9557 32.8117 21.7172C32.2384 19.181 30.8534 18.3693 27.0881 18.3693C22.8735 18.3693 22.3827 19.8369 22.3827 20.9375C22.3827 22.2721 22.9606 22.6619 28.6474 23.4141C34.2792 24.1616 36.953 25.2164 36.953 29.1743C36.953 33.1643 33.6234 35.4528 27.8173 35.4528L27.8439 35.4312Z" fill="#689F63"/>
</svg>
