<svg width="48" height="50" viewBox="0 0 48 50" fill="none" xmlns="http://www.w3.org/2000/svg">
<path d="M43.4015 8.99999C33.4562 0.804687 18.6531 1.31719 9.31876 10.5375C6.30001 13.5 4.59845 17.5531 4.59845 21.7843C4.59845 26.0156 6.30001 30.0687 9.31876 33.0312C15.6094 39.2484 25.8062 39.2484 32.089 33.0312C34.7906 30.3859 34.7906 26.0406 32.089 23.3953C29.3875 20.7265 25.0422 20.7265 22.3312 23.3953C21.4281 24.2828 19.9797 24.2828 19.0766 23.3953C18.1812 22.5078 18.1812 21.0593 19.0766 20.1812C23.5937 15.7375 30.8359 15.7375 35.3437 20.1812C37.5 22.2968 38.7125 25.1937 38.7125 28.214C38.7125 31.2343 37.5 34.1296 35.3437 36.2468C27.2625 44.239 14.1516 44.239 6.06251 36.2468C2.18908 32.4468 0.00783349 27.2375 2.10041e-05 21.8093C-0.00779148 16.3734 2.16408 11.1734 6.0297 7.35624C10.6203 2.81562 16.9516 0 23.9578 0C31.7703 0 38.7609 3.49999 43.3999 8.99999H43.4015ZM41.9124 42.6109C37.1437 47.3546 30.6906 50.0171 23.9594 49.9999C16.4641 50.0155 9.35157 46.728 4.5172 40.9999C14.4531 49.1952 29.2656 48.6827 38.6 39.4624C41.6187 36.4999 43.3203 32.4468 43.3203 28.2156C43.3203 23.9843 41.6187 19.9312 38.6 16.9687C32.3093 10.7515 22.1125 10.7515 15.8297 16.9687C13.1281 19.614 13.1281 23.9593 15.8297 26.6046C18.5312 29.2734 22.8765 29.2734 25.5875 26.6046C26.4906 25.7171 27.939 25.7171 28.8422 26.6046C29.7375 27.4921 29.7375 28.9406 28.8422 29.8187C24.325 34.2624 17.0828 34.2624 12.575 29.8187C10.4188 27.7031 9.20626 24.8062 9.20626 21.7859C9.20626 18.7656 10.4188 15.8703 12.575 13.7531C20.6562 5.76093 33.7656 5.76093 41.8562 13.7531C45.7218 17.5531 47.9109 22.7453 47.9187 28.1656C47.9265 33.5937 45.7703 38.7937 41.9124 42.6109Z" fill="black"/>
</svg>
