<svg width="50" height="50" viewBox="0 0 50 50" fill="none" xmlns="http://www.w3.org/2000/svg">
<path d="M3.95651 18.2578H11.3715C13.548 18.2762 15.1251 18.9003 16.1027 20.13C17.0803 21.3598 17.4031 23.0393 17.0711 25.1684C16.9419 26.1413 16.656 27.0957 16.2134 28.0318C15.7891 28.9679 15.1989 29.8122 14.4426 30.5648C13.5204 31.5192 12.5335 32.1249 11.4822 32.3819C10.4308 32.6389 9.3425 32.7674 8.21736 32.7674H4.89722L3.84584 37.9985H0L3.95651 18.2578ZM7.19365 21.3965L5.53358 29.6562C5.64424 29.6746 5.75491 29.6838 5.86559 29.6838H6.25294C8.02369 29.7021 9.49927 29.5277 10.6798 29.1606C11.8603 28.7752 12.6534 27.4353 13.0592 25.1409C13.3912 23.2136 13.0592 22.1032 12.0632 21.8095C11.0856 21.5158 9.85895 21.3782 8.38337 21.3965C8.16201 21.4148 7.9499 21.424 7.74701 21.424C7.56255 21.424 7.36887 21.424 7.16598 21.424L7.19365 21.3965Z" fill="black"/>
<path d="M21.4529 13H25.2711L24.192 18.2587H27.6229C29.5043 18.2954 30.9061 18.6809 31.8284 19.4151C32.7691 20.1493 33.0458 21.5443 32.6584 23.6L30.8047 32.7683H26.9312L28.7019 24.013C28.8863 23.0953 28.831 22.4436 28.5359 22.0582C28.2408 21.6727 27.6044 21.48 26.6268 21.48L23.5557 21.4525L21.2869 32.7683H17.4688L21.4529 13Z" fill="black"/>
<path d="M36.7592 18.2578H44.1742C46.3508 18.2762 47.9278 18.9003 48.9054 20.13C49.883 21.3598 50.2058 23.0393 49.8738 25.1684C49.7447 26.1413 49.4588 27.0957 49.0161 28.0318C48.5918 28.9679 48.0016 29.8122 47.2454 30.5648C46.3231 31.5192 45.3363 32.1249 44.2849 32.3819C43.2335 32.6389 42.1452 32.7674 41.0201 32.7674H37.6999L36.6486 37.9985H32.8027L36.7592 18.2578ZM39.9964 21.3965L38.3363 29.6562C38.447 29.6746 38.5576 29.6838 38.6683 29.6838H39.0557C40.8264 29.7021 42.302 29.5277 43.4825 29.1606C44.663 28.7752 45.4561 27.4353 45.862 25.1409C46.194 23.2136 45.862 22.1032 44.8659 21.8095C43.8883 21.5158 42.6617 21.3782 41.1861 21.3965C40.9647 21.4148 40.7526 21.424 40.5497 21.424C40.3653 21.424 40.1716 21.424 39.9687 21.424L39.9964 21.3965Z" fill="black"/>
</svg>
