<svg width="49" height="50" viewBox="0 0 49 50" fill="none" xmlns="http://www.w3.org/2000/svg">
<path d="M24.6502 29.4097C27.0846 29.4097 29.0581 27.4362 29.0581 25.0017C29.0581 22.5673 27.0846 20.5938 24.6502 20.5938C22.2157 20.5938 20.2422 22.5673 20.2422 25.0017C20.2422 27.4362 22.2157 29.4097 24.6502 29.4097Z" fill="#61DAFB"/>
<path d="M24.6525 34.0307C37.7154 34.0307 48.305 29.9874 48.305 24.9997C48.305 20.012 37.7154 15.9688 24.6525 15.9688C11.5896 15.9688 1 20.012 1 24.9997C1 29.9874 11.5896 34.0307 24.6525 34.0307Z" stroke="#61DAFB"/>
<path d="M16.8287 29.5185C23.3602 40.8314 32.1566 47.9806 36.476 45.4867C40.7954 42.9929 39.0023 31.8004 32.4708 20.4876C25.9393 9.17476 17.1429 2.02556 12.8235 4.51939C8.50405 7.01322 10.2972 18.2057 16.8287 29.5185Z" stroke="#61DAFB"/>
<path d="M16.8305 20.484C10.299 31.7968 8.50583 42.9893 12.8253 45.4831C17.1447 47.977 25.9411 40.8278 32.4726 29.5149C39.004 18.2021 40.7972 7.0096 36.4778 4.51577C32.1583 2.02194 23.3619 9.17114 16.8305 20.484Z" stroke="#61DAFB"/>
</svg>
