<svg width="50" height="50" viewBox="0 0 50 50" fill="none" xmlns="http://www.w3.org/2000/svg">
<path d="M29.0954 5.31882C27.8246 3.11168 25.0156 2.34252 22.8084 3.6133L22.775 3.64674C22.0727 4.08148 21.5042 4.64999 21.0694 5.35226L14.5818 16.6221L16.2873 17.6253C25.6844 23.0094 31.6704 32.8078 32.2055 43.6094H27.5571C26.9217 34.4799 21.8052 26.2867 13.8795 21.7052L12.174 20.7019L5.95386 31.1023L7.65938 32.1055C11.7393 34.5133 14.5149 38.6601 15.1169 43.3753H4.74996C4.34867 43.4088 3.98081 43.1078 3.91393 42.7065C3.88048 42.5393 3.94737 42.4055 4.04769 42.2718L6.99055 37.1886C5.9873 36.3192 4.85029 35.6503 3.61295 35.2156L0.636651 40.2987C-0.667571 42.5058 0.101586 45.3484 2.30873 46.6526C2.30873 46.6526 2.30873 46.6526 2.34217 46.6526C3.04444 47.0539 3.8136 47.2546 4.6162 47.2211H19.1298V45.2481C19.0964 39.1282 16.1535 33.3763 11.2376 29.7312L13.4782 25.8185C19.899 30.2328 23.7448 37.5231 23.7782 45.3149V47.1877H36.185V45.2146C36.1182 33.0753 29.9649 21.7386 19.8321 15.0503L24.4805 7.02434C24.748 6.65648 25.2162 6.52272 25.6175 6.72337C25.7513 6.72337 25.7513 6.85713 25.9185 7.02434L46.2175 42.1045C46.3847 42.4724 46.251 42.8737 45.9165 43.1078C45.7828 43.1078 45.6156 43.2416 45.5152 43.2416H40.5659V47.0539H45.348C47.8896 47.0205 49.963 44.9471 49.9964 42.4055C50.0298 41.6029 49.8292 40.8338 49.4279 40.1649L29.0954 5.31882Z" fill="#362D59"/>
</svg>
