<svg width="50" height="50" viewBox="0 0 50 50" fill="none" xmlns="http://www.w3.org/2000/svg">
<g clip-path="url(#clip0_1799_70416)">
<path d="M10.5505 31.6082C10.5505 34.5143 8.20177 36.863 5.29574 36.863C2.38972 36.863 0.0410156 34.5143 0.0410156 31.6082C0.0410156 28.7022 2.38972 26.3535 5.29574 26.3535H10.5505V31.6082ZM13.1778 31.6082C13.1778 28.7022 15.5265 26.3535 18.4326 26.3535C21.3386 26.3535 23.6873 28.7022 23.6873 31.6082V44.7451C23.6873 47.6511 21.3386 49.9998 18.4326 49.9998C15.5265 49.9998 13.1778 47.6511 13.1778 44.7451V31.6082Z" fill="#E01E5A"/>
<path d="M18.4314 10.5095C15.5253 10.5095 13.1766 8.16075 13.1766 5.25473C13.1766 2.3487 15.5253 0 18.4314 0C21.3374 0 23.6861 2.3487 23.6861 5.25473V10.5095H18.4314ZM18.4314 13.1766C21.3374 13.1766 23.6861 15.5253 23.6861 18.4314C23.6861 21.3374 21.3374 23.6861 18.4314 23.6861H5.25473C2.3487 23.6861 0 21.3374 0 18.4314C0 15.5253 2.3487 13.1766 5.25473 13.1766H18.4314Z" fill="#36C5F0"/>
<path d="M39.4903 18.4314C39.4903 15.5253 41.839 13.1766 44.7451 13.1766C47.6511 13.1766 49.9998 15.5253 49.9998 18.4314C49.9998 21.3374 47.6511 23.6861 44.7451 23.6861H39.4903V18.4314ZM36.863 18.4314C36.863 21.3374 34.5143 23.6861 31.6082 23.6861C28.7022 23.6861 26.3535 21.3374 26.3535 18.4314V5.25473C26.3535 2.3487 28.7022 0 31.6082 0C34.5143 0 36.863 2.3487 36.863 5.25473V18.4314V18.4314Z" fill="#2EB67D"/>
<path d="M31.6082 39.4903C34.5143 39.4903 36.863 41.839 36.863 44.7451C36.863 47.6511 34.5143 49.9998 31.6082 49.9998C28.7022 49.9998 26.3535 47.6511 26.3535 44.7451V39.4903H31.6082ZM31.6082 36.863C28.7022 36.863 26.3535 34.5143 26.3535 31.6082C26.3535 28.7022 28.7022 26.3535 31.6082 26.3535H44.7849C47.6909 26.3535 50.0396 28.7022 50.0396 31.6082C50.0396 34.5143 47.6909 36.863 44.7849 36.863H31.6082Z" fill="#ECB22E"/>
</g>
<defs>
<clipPath id="clip0_1799_70416">
<rect width="50" height="50" fill="white"/>
</clipPath>
</defs>
</svg>
