<svg width="50" height="50" viewBox="0 0 50 50" fill="none" xmlns="http://www.w3.org/2000/svg">
<g clip-path="url(#clip0_1799_70592)">
<path d="M24.4551 10.0099C15.6588 10.2894 13.0444 16.573 12.4453 19.9772C13.226 18.7154 15.6861 15.9467 19.3081 15.9467C23.5292 15.9467 26.7427 20.6581 28.7035 22.1286C31.0857 23.9153 35.8725 26.2743 42.1566 24.3618C47.1675 22.8367 49.4914 17.5171 49.9998 14.9935C47.576 18.2887 43.8996 20.268 39.3516 17.9347C36.2198 16.3279 33.8778 9.71034 24.4551 10.0099Z" fill="#07B6D5"/>
<path d="M12.0098 24.961C3.21351 25.2406 0.599128 31.5242 0 34.9283C0.780681 33.6665 3.24074 30.8979 6.86274 30.8979C11.0839 30.8979 14.2974 35.6092 16.2582 37.0798C18.6404 38.8665 23.4272 41.2255 29.7113 39.3129C34.7222 37.7879 37.0461 32.4683 37.5545 29.9447C35.1307 33.2399 31.4542 35.2191 26.9063 32.8859C23.7745 31.2791 21.4325 24.6615 12.0098 24.961Z" fill="#07B6D5"/>
</g>
<defs>
<clipPath id="clip0_1799_70592">
<rect width="50" height="50" fill="white"/>
</clipPath>
</defs>
</svg>
