<svg width="50" height="50" viewBox="0 0 50 50" fill="none" xmlns="http://www.w3.org/2000/svg">
<path d="M0 25V0H50V50H0" fill="#007ACC"/>
<path d="M10.9629 25.0881V27.1256H17.4629V45.6256H22.0754V27.1256H28.5754V25.1256C28.5754 24.0006 28.5754 23.0881 28.5254 23.0631C28.5254 23.0256 24.5629 23.0131 19.7504 23.0131L11.0004 23.0506V25.1006L10.9629 25.0881ZM40.1754 23.0006C41.4504 23.3006 42.4254 23.8756 43.3004 24.7881C43.7629 25.2881 44.4504 26.1631 44.5004 26.3881C44.5004 26.4631 42.3379 27.9256 41.0254 28.7381C40.9754 28.7756 40.7754 28.5631 40.5754 28.2381C39.9254 27.3131 39.2629 26.9131 38.2254 26.8381C36.7254 26.7381 35.7254 27.5256 35.7254 28.8381C35.7254 29.2381 35.8004 29.4631 35.9504 29.7881C36.2879 30.4756 36.9129 30.8881 38.8504 31.7381C42.4254 33.2756 43.9754 34.2881 44.9129 35.7381C45.9754 37.3631 46.2129 39.9131 45.5004 41.8256C44.7004 43.9131 42.7504 45.3256 39.9629 45.7881C39.0879 45.9381 37.0879 45.9131 36.1504 45.7506C34.1504 45.3756 32.2379 44.3756 31.0629 43.0881C30.6004 42.5881 29.7129 41.2506 29.7629 41.1631L30.2379 40.8631L32.1129 39.7756L33.5254 38.9506L33.8504 39.3881C34.2629 40.0381 35.1879 40.9131 35.7254 41.2131C37.3504 42.0506 39.5254 41.9381 40.6004 40.9631C41.0629 40.5381 41.2629 40.0881 41.2629 39.4631C41.2629 38.8881 41.1754 38.6256 40.8879 38.1881C40.4879 37.6381 39.6879 37.1881 37.4379 36.1881C34.8504 35.0881 33.7504 34.3881 32.7254 33.3131C32.1379 32.6631 31.6004 31.6506 31.3504 30.8131C31.1629 30.0881 31.1004 28.3131 31.2754 27.6006C31.8129 25.1006 33.7004 23.3506 36.4004 22.8506C37.2754 22.6756 39.3379 22.7506 40.2004 22.9756L40.1754 23.0006Z" fill="white"/>
</svg>
