<svg width="50" height="50" viewBox="0 0 50 50" fill="none" xmlns="http://www.w3.org/2000/svg">
<path d="M45.6969 38.5361L25.4325 50V41.0733L38.0587 34.1259L45.6969 38.5361ZM47.085 37.2808V13.3103L39.6727 17.5943V33.0035L47.085 37.2808ZM3.38815 38.5361L23.6525 50V41.0733L11.0197 34.1259L3.38815 38.5361ZM2 37.2808V13.3103L9.41233 17.5943V33.0035L2 37.2808ZM2.87009 11.7561L23.6525 0V8.62779L10.3355 15.9538L10.2293 16.0135L2.87009 11.7561ZM46.2149 11.7561L25.4325 0V8.62779L38.7495 15.9471L38.8557 16.0069L46.2149 11.7561Z" fill="#8ED6FB"/>
<path d="M23.6535 39.0413L11.1934 32.1869V18.6176L23.6535 25.8107V39.0413ZM25.4335 39.0413L37.8937 32.1936V18.6176L25.4335 25.8107V39.0413ZM12.0369 17.0501L24.5435 10.1758L37.0502 17.0501L24.5435 24.2698L12.0369 17.0501Z" fill="#1C78C0"/>
</svg>
